HIERARCHY
ROOT SimulationBone
{
	OFFSET 0.000000 0.000000 0.000000
	CHANNELS 6 Xposition Yposition Zposition Zrotation Yrotation Xrotation 
	JOINT Hips
	{
		OFFSET 0.000000 0.000000 0.000000
		CHANNELS 6 Xposition Yposition Zposition Zrotation Yrotation Xrotation 
		JOINT RightUpLeg
		{
			OFFSET 0.103457 1.857824 10.548509
			CHANNELS 3 Zrotation Yrotation Xrotation
			JOINT RightLeg
			{
				OFFSET 43.500000 -0.000023 0.000006
				CHANNELS 3 Zrotation Yrotation Xrotation
				JOINT RightFoot
				{
					OFFSET 42.372192 0.000011 -0.000009
					CHANNELS 3 Zrotation Yrotation Xrotation
					JOINT RightToe
					{
						OFFSET 17.300005 0.000002 -0.000010
						CHANNELS 3 Zrotation Yrotation Xrotation
						End Site
						{
							OFFSET 0.000000 0.000000 0.000000
						}
					}
				}
			}
		}
		JOINT LeftUpLeg
		{
			OFFSET 0.103458 1.857836 -10.548506
			CHANNELS 3 Zrotation Yrotation Xrotation
			JOINT LeftLeg
			{
				OFFSET 43.500038 -0.000023 0.000017
				CHANNELS 3 Zrotation Yrotation Xrotation
				JOINT LeftFoot
				{
					OFFSET 42.372269 -0.000019 0.000007
					CHANNELS 3 Zrotation Yrotation Xrotation
					JOINT LeftToe
					{
						OFFSET 17.299999 -0.000003 0.000008
						CHANNELS 3 Zrotation Yrotation Xrotation
						End Site
						{
							OFFSET 0.000000 0.000000 0.000000
						}
					}
				}
			}
		}
		JOINT Spine
		{
			OFFSET 6.901969 -2.603729 0.000003
			CHANNELS 3 Zrotation Yrotation Xrotation
			JOINT Spine1
			{
				OFFSET 12.588093 -0.000007 0.000001
				CHANNELS 3 Zrotation Yrotation Xrotation
				JOINT Spine2
				{
					OFFSET 12.343206 0.000014 -0.000007
					CHANNELS 3 Zrotation Yrotation Xrotation
					JOINT Neck
					{
						OFFSET 25.832899 -0.000010 0.000002
						CHANNELS 3 Zrotation Yrotation Xrotation
						JOINT Head
						{
							OFFSET 11.766599 0.000010 -0.000001
							CHANNELS 3 Zrotation Yrotation Xrotation
							End Site
							{
								OFFSET 0.000000 0.000000 0.000000
							}
						}
					}
					JOINT RightShoulder
					{
						OFFSET 19.745895 -1.480371 6.000111
						CHANNELS 3 Zrotation Yrotation Xrotation
						JOINT RightArm
						{
							OFFSET 11.284124 -0.000010 -0.000007
							CHANNELS 3 Zrotation Yrotation Xrotation
							JOINT RightForeArm
							{
								OFFSET 33.000061 0.000006 0.000028
								CHANNELS 3 Zrotation Yrotation Xrotation
								JOINT RightHand
								{
									OFFSET 25.200001 0.000019 0.000008
									CHANNELS 3 Zrotation Yrotation Xrotation
									End Site
									{
										OFFSET 0.000000 0.000000 0.000000
									}
								}
							}
						}
					}
					JOINT LeftShoulder
					{
						OFFSET 19.746101 -1.480375 -6.000078
						CHANNELS 3 Zrotation Yrotation Xrotation
						JOINT LeftArm
						{
							OFFSET 11.284128 -0.000010 -0.000011
							CHANNELS 3 Zrotation Yrotation Xrotation
							JOINT LeftForeArm
							{
								OFFSET 33.000095 0.000022 0.000002
								CHANNELS 3 Zrotation Yrotation Xrotation
								JOINT LeftHand
								{
									OFFSET 25.199768 0.000129 0.000422
									CHANNELS 3 Zrotation Yrotation Xrotation
									End Site
									{
										OFFSET 0.000000 0.000000 0.000000
									}
								}
							}
						}
					}
				}
			}
		}
	}
}
MOTION
Frames: 10
Frame Time: 0.016667
41.583699 0.000000 -204.225627 0.000000 -23.543434 0.000000 -3.578156 89.560282 -0.622321 86.351486 -2.246546 -179.762162 172.277467 3.723553 170.732973 -24.372687 3.162939 -3.449119 93.471595 1.574961 -5.771515 21.454557 0.003108 0.000018 142.480520 4.943394 -175.951381 -43.216534 -1.145925 4.519500 69.068146 -0.389371 8.213277 21.454557 -0.003087 0.000000 7.268851 -0.725238 -1.931087 4.548539 -1.374625 -3.889217 4.231138 -1.398207 -3.880865 12.280312 -7.073971 -3.675769 -12.800899 14.195269 -9.206157 171.461136 -76.006246 7.312288 -21.944985 44.176012 -6.833774 -75.728871 -7.613972 2.254415 -10.011930 -13.133639 15.700813 -150.309852 82.420752 31.611769 28.646785 -61.922815 -74.431168 -30.616627 14.921167 -1.236659 13.751826 2.085026 8.984731 
43.005788 0.000000 -203.455573 0.000000 -23.556506 0.000000 -3.657698 89.380493 -0.748275 86.084964 -2.371165 -179.818971 173.096856 3.818605 170.858780 -24.314918 3.070613 -3.506521 94.270967 1.632991 -5.936355 21.454555 0.003108 0.000017 143.109114 4.714204 -175.340108 -37.212464 -1.020085 3.882349 68.812338 -0.111537 7.668953 21.454551 -0.003095 0.000000 7.221288 -0.707184 -2.010866 4.453669 -1.337112 -4.047483 4.136341 -1.361646 -4.039356 12.413647 -7.024693 -3.818709 -12.814678 14.315943 -9.383593 171.289805 -76.113806 7.483691 -23.729319 43.289851 -7.703241 -74.742390 -7.966196 2.237550 -9.251230 -12.626761 15.421669 -149.644783 82.303300 32.288089 29.555296 -62.485745 -74.796218 -30.816648 15.263828 -1.262658 13.629324 2.019694 9.037837 
44.431100 0.000000 -202.676981 0.000000 -23.587758 0.000000 -3.743051 89.219968 -0.886906 85.783871 -2.504407 -179.858537 173.949779 3.989343 171.147311 -24.092772 3.001562 -3.694376 94.913038 1.762376 -6.199083 21.454555 0.003110 0.000017 143.919633 4.562778 -174.257233 -31.051377 -0.867197 3.118409 68.571545 0.050301 6.556297 21.454552 -0.003091 0.000000 7.165094 -0.691438 -2.072453 4.341401 -1.305340 -4.169402 4.024126 -1.330609 -4.161466 12.495215 -7.005273 -3.995612 -12.784009 14.396670 -9.583010 171.301446 -76.215059 7.468456 -25.515599 42.503737 -8.362524 -73.414746 -8.420072 2.213895 -8.520320 -12.058248 15.062411 -148.988629 82.207726 32.954959 30.356017 -63.066870 -75.104367 -31.040210 15.560766 -1.286195 13.516492 1.788156 8.862313 
45.861514 0.000000 -201.887726 0.000000 -23.638753 0.000000 -3.808480 89.039078 -1.024455 85.496711 -2.704633 -179.822097 174.843731 4.256196 171.510913 -23.836201 2.971970 -3.914539 95.456032 1.904466 -6.521133 21.454558 0.003111 0.000018 144.886807 4.452897 -172.411870 -25.024719 -0.922745 2.212122 68.565106 0.533542 6.054723 21.454555 -0.003084 0.000001 7.108522 -0.685627 -2.127821 4.228667 -1.293784 -4.279287 3.911438 -1.319716 -4.271420 12.567340 -7.030808 -4.201548 -12.768626 14.476506 -9.819824 171.104010 -76.286111 7.667686 -27.189367 41.840426 -8.842795 -71.776442 -8.921990 2.179898 -7.783220 -11.503840 14.618032 -148.484347 82.120285 33.468048 31.056384 -63.625286 -75.360815 -31.254934 15.813271 -1.306757 13.389191 1.455409 8.527447 
47.298680 0.000000 -201.086587 0.000000 -23.712783 0.000000 -3.838866 88.811527 -1.142753 85.263076 -2.997050 -179.671572 175.771078 4.597319 171.841820 -23.674596 2.988167 -4.062020 95.941752 1.995834 -6.855404 21.454558 0.003110 0.000018 145.957518 4.297196 -169.742998 -19.486624 -1.380550 1.171621 68.972545 1.641472 7.099145 21.454553 -0.003085 0.000001 7.058430 -0.691718 -2.184284 4.129355 -1.305836 -4.391878 3.812178 -1.332447 -4.383940 12.676931 -7.118741 -4.429311 -12.816461 14.596880 -10.106433 170.368736 -76.304899 8.417652 -28.636261 41.320164 -9.155929 -69.876347 -9.425531 2.135912 -7.001605 -11.035020 14.107721 -148.254037 82.032103 33.703967 31.654296 -64.136272 -75.581047 -31.418729 16.030320 -1.323999 13.222046 1.083524 8.128356 
48.742631 0.000000 -200.273638 0.000000 -23.812671 0.000000 -3.889895 88.614311 -1.224249 85.052228 -3.214368 -179.496193 176.688374 4.806793 171.989436 -23.546850 3.039301 -4.088143 96.267151 1.996052 -7.216300 21.454558 0.003108 0.000017 146.967748 3.892194 -167.264188 -14.948637 -2.073794 0.382622 69.554998 2.584205 8.285381 21.454551 -0.003089 0.000001 7.012496 -0.682835 -2.220973 4.037551 -1.288581 -4.464435 3.720415 -1.315629 -4.456600 12.804405 -7.235306 -4.670749 -12.878025 14.722519 -10.413096 169.401408 -76.316916 9.404608 -29.899518 40.991366 -9.262626 -67.762347 -9.959138 2.087936 -6.159992 -10.603912 13.534213 -148.264593 81.947932 33.695965 32.012177 -64.641106 -75.726864 -31.502085 16.202010 -1.336748 13.029716 0.709534 7.758072 
50.190419 0.000000 -199.450959 0.000000 -23.941369 0.000000 -4.005443 88.510510 -1.257548 84.831375 -3.212561 -179.378451 177.533749 4.711269 171.840949 -23.431873 3.105502 -3.969618 96.355892 1.881743 -7.619626 21.454557 0.003108 0.000017 147.727963 3.171100 -166.003713 -11.994093 -2.786786 0.259801 69.896286 2.566257 8.034711 21.454552 -0.003089 0.000002 6.966771 -0.635464 -2.220938 3.944235 -1.195691 -4.462239 3.627113 -1.222727 -4.454961 12.917661 -7.349104 -4.913515 -12.902551 14.812374 -10.704281 168.586334 -76.369647 10.234557 -31.040263 40.892339 -9.129734 -65.475202 -10.546530 2.038413 -5.253531 -10.156800 12.899086 -148.448634 81.873148 33.511999 31.980842 -65.173348 -75.742187 -31.486115 16.314307 -1.343711 12.832659 0.364639 7.487505 
51.638013 0.000000 -198.622332 0.000000 -24.102836 0.000000 -4.122308 88.404243 -1.257782 84.620322 -3.131345 -179.242375 178.216151 4.435699 171.503851 -23.660137 3.147378 -3.728634 96.382137 1.679604 -8.025838 21.454558 0.003108 0.000018 148.074935 2.550996 -165.952915 -11.229827 -3.191954 0.757602 69.619830 1.718831 6.518832 21.454555 -0.003088 0.000002 6.920074 -0.568485 -2.210931 3.848110 -1.063974 -4.439506 3.530996 -1.090876 -4.433018 13.002358 -7.488483 -5.130477 -12.934217 14.876432 -10.965316 168.026997 -76.434190 10.802884 -32.036848 40.990877 -8.802889 -63.030808 -11.115697 1.981528 -4.290750 -9.737014 12.207422 -148.747637 81.803494 33.211453 31.514212 -65.667983 -75.568035 -31.381918 16.355562 -1.344138 12.638516 0.079110 7.302563 
53.082878 0.000000 -197.791291 0.000000 -24.298389 0.000000 -4.175019 88.216724 -1.238188 84.466359 -3.082632 -179.016486 178.686456 4.083588 171.103570 -24.526326 3.148478 -3.391143 96.464997 1.416919 -8.402871 21.454558 0.003108 0.000018 147.991910 2.331830 -166.686724 -12.775084 -3.036738 1.603552 68.528932 0.387725 4.266260 21.454553 -0.003089 0.000001 6.880670 -0.494233 -2.213684 3.766404 -0.917006 -4.442215 3.449314 -0.943928 -4.436611 13.040979 -7.678552 -5.302340 -13.021674 14.928569 -11.191757 167.736545 -76.457406 11.098271 -32.850486 41.245910 -8.347177 -60.460160 -11.589260 1.916424 -3.291588 -9.389780 11.497106 -149.101675 81.715916 32.855724 30.545993 -66.053413 -75.092042 -31.207692 16.324522 -1.338420 12.455069 -0.125602 7.163365 
54.523721 0.000000 -196.959894 0.000000 -24.524630 0.000000 -4.189852 88.096512 -1.175962 84.481473 -2.785258 -178.804170 179.095524 3.395406 170.592471 -25.828450 3.190795 -2.953074 96.255915 1.062058 -8.799651 21.454557 0.003107 0.000017 148.029815 1.955902 -167.177691 -14.817626 -2.774248 2.100451 66.970359 -0.986831 1.371337 21.454551 -0.003089 0.000000 6.892085 -0.356272 -2.192259 3.783700 -0.641514 -4.394918 3.466615 -0.668156 -4.390974 12.984834 -7.871516 -5.455406 -13.135400 14.949240 -11.398224 167.609290 -76.368647 11.231498 -33.468742 41.659034 -7.841391 -57.876481 -11.965122 1.847185 -2.314843 -9.073164 10.942782 -149.428675 81.521722 32.530524 28.815604 -66.330710 -73.979763 -30.979637 16.259229 -1.329790 12.302051 -0.261625 7.012330 
